<svg xmlns="http://www.w3.org/2000/svg" xmlns:xlink="http://www.w3.org/1999/xlink"
    xmlns:ev="http://www.w3.org/2001/xml-events">
    <symbol viewBox="0 0 256 256" id="cart">
        <g fill="currentColor">
            <path data-title="Layer 0" xs="0" d="M221.6,30.1c-15.9,2.4-17.4,2.8-19,4.9c-0.3,0.4-2.1,4.5-3.9,9.2c-1.9,4.7-3.6,8.5-3.8,8.5c-1.6,0-179.9,26.4-180.9,26.8c-1.6,0.6-3.6,3-3.9,4.8c-0.5,2.4,8.8,63.5,9.9,65.3c0.5,0.8,1.5,1.9,2.3,2.3c1.7,1-2.1,0.7,91.1,6.8c27.5,1.8,50.8,3.5,51.8,3.8c1.9,0.5,5.1,3.2,6.1,5c1.9,3.6,1.2,8.1-1.7,11.3c-3.3,3.8,1.9,3.5-69.1,3.5c-60.5,0-63.1,0-64.7,0.9c-4.6,2.5-4.8,8.5-0.3,11.8c1.3,1,1.3,1,65.7,1c61.3,0,64.6,0,67.2-0.8c4-1.3,6.7-2.7,9.5-5.3c5.2-4.7,7.9-10.7,7.9-17.7c0-7.1-2.3-12.6-7.4-17.3c-1.7-1.6-3.9-3.3-5-3.8c-1.1-0.5-1.9-1.2-1.8-1.4c3.4-8.8,41.2-103.8,41.5-104.1c0.1-0.1,6.6-1.3,14.3-2.4c9.4-1.4,14.4-2.3,15.3-2.9c1.8-1.1,3.3-3.8,3.3-5.9c0-3.5-3.5-6.9-6.9-6.8C238.2,27.7,230.3,28.7,221.6,30.1z M188.9,68.9c-0.4,0.8-3.3,8.2-6.6,16.4l-5.9,15l-1.7,0c-0.9,0-9.7,0.5-19.6,1c-11.9,0.7-18,0.9-18,0.6c0-0.8,7.3-27.6,7.6-27.9c0.3-0.3,41.3-6.5,43.5-6.6C189.5,67.4,189.5,67.4,188.9,68.9z M127.8,83c-1,3.8-2.6,9.8-3.6,13.5c-1.7,6.5-1.7,6.6-3.1,6.8c-2,0.3-38.7,2.2-38.9,2c-0.3-0.2,1.9-22.1,2.2-22.4c0.3-0.3,41.4-6.5,43.8-6.6l1.4,0L127.8,83z M70,86.5c0,2.1-1.8,19.4-1.9,19.6c-0.2,0.2-40.8,2.5-40.9,2.4c-0.3-0.3-2.5-16.6-2.3-16.9c0.3-0.3,41.5-6.5,43.7-6.6C69.9,85,70,85.1,70,86.5z M170.5,114.6c0,0.2-2.9,7.8-6.5,16.8l-6.5,16.3l-15.8-1c-8.7-0.6-15.9-1.1-16-1.3c-0.2-0.2,7.2-28.5,7.5-28.9c0-0.1,8.1-0.6,17.9-1.2c9.8-0.6,18.1-1.1,18.6-1.1C170.1,114.2,170.5,114.4,170.5,114.6z M118.4,118.2c-0.1,0.5-1.7,6.6-3.6,13.6c-1.9,7-3.4,12.8-3.4,12.9c-0.2,0.2-32.2-2.1-32.5-2.4c-0.2-0.2,1.6-22.5,1.9-22.9c0.1-0.1,30.2-1.9,34-1.9C118.3,117.4,118.7,117.5,118.4,118.2z M66.8,121.2c0,2-1.9,20-2.1,20.2c-0.1,0.2-32.7-1.8-33-1.9c-0.1-0.1-2.5-15.9-2.5-16.6c0-0.5,3.3-0.8,16.3-1.6C68,120,66.8,120,66.8,121.2z"/><path data-title="Layer 1" xs="1" d="M48.7,199.8c-6.7,2.2-11,8.2-10.5,14.9c0.4,5.6,3.3,10,8.1,12.4c2.2,1.1,3.2,1.3,6.3,1.3c3.1,0,4.1-0.2,6.3-1.3c3-1.5,5.6-4.2,7-7.2c1.4-3.2,1.4-9.2-0.1-12.1c-2.6-5.1-7-7.9-12.6-8.2C51.4,199.5,49.3,199.6,48.7,199.8z"/><path data-title="Layer 2" xs="2" d="M156.8,200.3c-12,4.7-12.5,21.3-0.7,26.8c3.4,1.6,8.5,1.7,11.7,0.2c5.2-2.4,8.3-6.9,8.6-12.6c0.3-6.2-2.6-11.3-8-13.9C165.3,199.2,160.1,199,156.8,200.3z"/>
        </g>
    </symbol>
</svg>